<?xml version="1.0" standalone="no"?>
<!DOCTYPE svg PUBLIC "-//W3C//DTD SVG 20010904//EN"
 "http://www.w3.org/TR/2001/REC-SVG-20010904/DTD/svg10.dtd">
<svg version="1.0" xmlns="http://www.w3.org/2000/svg"
 width="1536.000000pt" height="1024.000000pt" viewBox="0 0 1536.000000 1024.000000"
 preserveAspectRatio="xMidYMid meet">

<g transform="translate(0.000000,1024.000000) scale(0.100000,-0.100000)"
fill="#000000" stroke="none">
<path d="M7602 8580 c3 -8 19 -64 37 -125 39 -140 66 -301 82 -485 44 -534
-116 -1138 -428 -1620 -58 -90 -164 -232 -169 -227 -1 1 6 52 16 112 22 125
26 350 10 483 -22 174 -87 364 -174 510 l-43 73 -6 -88 c-21 -300 -190 -702
-473 -1124 -87 -129 -187 -279 -224 -334 -155 -231 -269 -459 -345 -690 -119
-360 -110 -714 28 -1038 102 -241 285 -455 492 -576 90 -53 104 -52 67 2 -129
191 -192 395 -192 622 l0 110 33 -60 c186 -343 716 -935 971 -1086 20 -12 35
-23 34 -25 -2 -1 -73 8 -158 22 -186 29 -364 72 -520 126 -117 41 -396 170
-449 207 -40 29 -44 26 -25 -11 43 -83 287 -295 600 -520 342 -247 552 -432
664 -586 67 -92 178 -280 198 -334 16 -45 32 -63 32 -35 0 22 85 201 130 272
191 305 427 531 920 883 379 270 581 480 732 762 139 259 207 566 194 880 -12
294 -73 541 -218 875 -194 448 -225 553 -236 794 l-7 154 -47 -70 c-103 -155
-150 -277 -198 -503 -18 -85 -41 -177 -52 -205 -20 -51 -88 -168 -95 -162 -2
2 4 62 12 133 22 193 29 466 16 639 -65 824 -362 1445 -978 2045 -140 137
-240 223 -231 200z m-362 -3359 c183 -31 362 -161 465 -336 l38 -66 40 73 c61
111 179 224 287 276 108 51 171 65 290 65 270 0 488 -152 582 -406 25 -67 31
-103 36 -194 16 -347 -164 -617 -788 -1183 -93 -85 -349 -303 -433 -369 -15
-12 -30 -2 -134 85 -474 395 -780 689 -935 898 -74 99 -151 256 -178 360 -25
98 -27 243 -4 335 63 260 276 447 534 471 88 7 108 7 200 -9z"/>
</g>
</svg>
